<svg width="6" height="5" viewBox="0 0 6 5" fill="none" xmlns="http://www.w3.org/2000/svg">
<path d="M0.404901 0.0121965C0.215057 0.0567279 0.0568542 0.22079 0.00997923 0.420009C-0.0181458 0.540712 0.0146667 0.707119 0.0896667 0.817275C0.107245 0.843056 0.515057 1.29774 0.996698 1.82743L1.87326 2.79071L1.8756 3.72587C1.87912 4.65048 1.87912 4.6622 1.90373 4.69384C1.96115 4.77235 2.05607 4.80048 2.13225 4.76415C2.15451 4.7536 2.39123 4.56962 2.65842 4.35517C3.00881 4.07509 3.1506 3.95438 3.16467 3.92509C3.18342 3.88759 3.18576 3.83485 3.18576 3.33681V2.79071L3.96271 1.93642C4.38928 1.46649 4.79123 1.0247 4.85451 0.954384C4.98342 0.811415 5.03146 0.72704 5.05256 0.602821C5.08654 0.402431 4.98224 0.180946 4.80178 0.0731339C4.67053 -0.00538158 4.81467 -0.000694275 2.52365 0.000477791C1.34943 0.00164986 0.430682 0.00633717 0.404901 0.0121965ZM4.60021 0.394228C4.65881 0.421181 4.69396 0.500868 4.67521 0.561806C4.66584 0.593446 4.43615 0.854774 3.75881 1.60009C3.26193 2.14735 2.84709 2.6079 2.83537 2.62431C2.81896 2.64892 2.81545 2.71806 2.81076 3.20321L2.8049 3.75282L2.53537 3.97313C2.38771 4.09384 2.26232 4.19345 2.25764 4.19345C2.25178 4.19462 2.24826 3.8536 2.24826 3.43524C2.24709 2.74267 2.24592 2.67352 2.22717 2.64071C2.21662 2.61962 1.80412 2.15907 1.31076 1.61649C0.817401 1.07392 0.404901 0.613368 0.394354 0.593446C0.35451 0.523134 0.376776 0.439931 0.447089 0.397743C0.483417 0.374306 0.522089 0.374306 2.52131 0.374306C4.40451 0.374306 4.56271 0.375477 4.60021 0.394228Z" fill="white"/>
</svg>
