<svg width="17" height="17" viewBox="0 0 17 17" fill="none" xmlns="http://www.w3.org/2000/svg">
<g clip-path="url(#clip0_28_118)">
<path d="M4.42708 4.42708H5.44531V6.46354H4.42708V4.42708Z" fill="white"/>
<path d="M4.42708 7.48177H5.44531V9.51822H4.42708V7.48177Z" fill="white"/>
<path d="M7.48177 4.42708H8.49999V6.46354H7.48177V4.42708Z" fill="white"/>
<path d="M7.48177 7.48177H8.49999V9.51822H7.48177V7.48177Z" fill="white"/>
<path d="M4.42708 10.5365H5.44531V12.5729H4.42708V10.5365Z" fill="white"/>
<path d="M7.48177 10.5365H8.49999V12.5729H7.48177V10.5365Z" fill="white"/>
<path d="M17.6641 8.35453C17.6641 8.0459 17.5415 7.74991 17.3232 7.53168C17.105 7.31345 16.809 7.19084 16.5004 7.19084H13.0093V2.53608C13.0093 2.22745 12.8867 1.93146 12.6685 1.71323C12.4502 1.49499 12.1542 1.37239 11.8456 1.37239H2.53608C2.22745 1.37239 1.93146 1.49499 1.71323 1.71323C1.49499 1.93146 1.37239 2.22745 1.37239 2.53608V17.6641H17.6641V8.35453ZM2.53608 2.53608H11.8456V16.5004H2.53608V2.53608ZM13.0093 16.5004V8.35453H16.5004V16.5004H13.0093Z" fill="white"/>
</g>
<defs>
<clipPath id="clip0_28_118">
<rect width="17" height="17" fill="white"/>
</clipPath>
</defs>
</svg>
