<svg width="7" height="8" viewBox="0 0 7 8" fill="none" xmlns="http://www.w3.org/2000/svg">
<path opacity="0.6" d="M4.48816 7.35359C4.53866 7.37898 4.59249 7.37669 4.65485 7.34601L4.71207 7.3178L5.44616 6.28116C5.85126 5.71012 6.19255 5.22437 6.20472 5.20072C6.25015 5.11186 6.21624 4.99377 6.1328 4.94755C6.09736 4.92971 6.03923 4.93347 5.70356 4.98055C5.48984 5.00965 5.31059 5.0304 5.30611 5.02664C5.30072 5.02213 5.28204 4.60881 5.26355 4.10595L5.23003 3.19451L5.92895 2.36025C6.70951 1.42854 6.66811 1.48524 6.64247 1.37915C6.62824 1.32323 6.57754 1.26891 6.52128 1.25223C6.48174 1.2411 6.40394 1.25377 6.36228 1.2798C6.33928 1.29267 6.09334 1.58077 5.59602 2.1744C4.95541 2.93906 4.86141 3.05492 4.84558 3.0975C4.83379 3.13162 4.84106 3.47108 4.86726 4.20716C4.8887 4.79033 4.91149 5.29171 4.91777 5.32067C4.9313 5.38108 4.99276 5.44441 5.04877 5.45411C5.06627 5.45692 5.20315 5.44299 5.35202 5.42386C5.50082 5.40299 5.61951 5.39073 5.61534 5.39571C5.61035 5.40167 5.3755 5.73121 5.09278 6.13065C4.8109 6.52909 4.57682 6.85589 4.57253 6.85737C4.56817 6.8571 3.46134 5.72676 3.43852 5.6975C3.43666 5.69425 3.55336 5.67525 3.69787 5.65586C3.84232 5.63472 3.98048 5.60832 4.00438 5.5962C4.06251 5.56874 4.10948 5.49809 4.12069 5.42456C4.13292 5.33158 4.06314 3.59949 4.04448 3.56525C4.02385 3.52427 3.96822 3.47767 3.92425 3.46453C3.87497 3.44862 2.11271 3.69666 2.04869 3.72933C1.98634 3.76001 1.94795 3.80401 1.93098 3.86255C1.92406 3.88721 1.92221 4.02612 1.9267 4.17204C1.93293 4.31771 1.93467 4.43593 1.93114 4.43467C1.89654 4.41583 0.59157 3.52564 0.591378 3.52041C0.591249 3.51691 0.871986 3.2292 1.21488 2.88188C1.55861 2.53356 1.84191 2.24461 1.84691 2.23864C1.85107 2.23367 1.8598 2.35267 1.86532 2.50282C1.87257 2.65274 1.88283 2.78995 1.88867 2.80668C1.90796 2.85838 1.98378 2.91005 2.04389 2.91303C2.0735 2.91414 2.57022 2.84799 3.14813 2.76694C3.87741 2.66378 4.2129 2.61146 4.24442 2.59387C4.28358 2.57083 4.38117 2.45798 5.02178 1.69333C5.52077 1.09771 5.75966 0.807088 5.76831 0.782182C5.81514 0.660658 5.74169 0.531433 5.6214 0.523733C5.51246 0.517075 5.56103 0.466386 4.78048 1.3981L4.08156 2.23236L3.1697 2.36025L2.25611 2.48838L2.24051 2.08779C2.22773 1.74033 2.22125 1.68244 2.19748 1.65067C2.13736 1.57662 2.01515 1.56392 1.93562 1.62422C1.91447 1.64035 1.49603 2.06145 1.00479 2.56033L0.112785 3.46468L0.0942051 3.52695C0.0711404 3.60917 0.0890887 3.67158 0.150934 3.7217C0.176954 3.7435 0.613204 4.04298 1.12162 4.38938C2.10723 5.0611 2.09922 5.05608 2.18432 5.02922C2.23162 5.01469 2.29897 4.95435 2.32581 4.90408C2.33632 4.88242 2.33779 4.73303 2.32912 4.47363L2.31454 4.07728L2.99454 3.98191L3.67281 3.88678L3.69798 4.57122L3.72322 5.25742L3.32698 5.31299L2.92902 5.3688L2.87461 5.42645C2.82771 5.47515 2.81874 5.49133 2.81099 5.54068C2.80605 5.57209 2.80939 5.61549 2.81894 5.63872C2.83131 5.6677 3.0421 5.88999 3.62128 6.48182C4.05318 6.92318 4.41824 7.29671 4.43183 7.31147C4.44625 7.32525 4.47131 7.34455 4.48816 7.35359Z" fill="white"/>
</svg>
