<svg width="4" height="4" viewBox="0 0 4 4" fill="none" xmlns="http://www.w3.org/2000/svg">
<path d="M0.804444 1.73111C1.12444 2.36 1.64 2.87333 2.26889 3.19556L2.75778 2.70667C2.81778 2.64667 2.90667 2.62667 2.98444 2.65333C3.23333 2.73556 3.50222 2.78 3.77778 2.78C3.9 2.78 4 2.88 4 3.00222V3.77778C4 3.9 3.9 4 3.77778 4C1.69111 4 0 2.30889 0 0.222222C0 0.1 0.1 0 0.222222 0H1C1.12222 0 1.22222 0.1 1.22222 0.222222C1.22222 0.5 1.26667 0.766667 1.34889 1.01556C1.37333 1.09333 1.35556 1.18 1.29333 1.24222L0.804444 1.73111Z" fill="#F8F8F2"/>
</svg>
