<svg width="5" height="5" viewBox="0 0 5 5" fill="none" xmlns="http://www.w3.org/2000/svg">
<path d="M2.49598 0.000498772C2.49193 0.00912094 2.47032 0.096421 2.446 0.194499C2.2393 1.02978 2.00829 1.38976 1.53005 1.6204C1.26256 1.74973 0.835661 1.85967 0.243943 1.95128C0.121006 1.9696 0.011579 1.98792 0.000771409 1.99116C-0.0100362 1.99439 0.0939873 2.01595 0.233136 2.0375C1.09775 2.17654 1.51924 2.31341 1.81645 2.55052C2.0961 2.77362 2.28118 3.13791 2.43924 3.76949C2.46491 3.87512 2.49058 3.97319 2.49463 3.98828C2.50004 4.00553 2.523 3.93763 2.56083 3.78889C2.73781 3.0948 2.89452 2.78764 3.19443 2.54837C3.49434 2.31018 3.8672 2.18839 4.74127 2.04289C4.89393 2.0181 5.01011 1.99439 4.9993 1.99116C4.9885 1.98792 4.86691 1.96745 4.72911 1.94589C3.9307 1.81979 3.47948 1.67321 3.19443 1.4458C2.90397 1.21516 2.73916 0.896133 2.56758 0.232221C2.53246 0.0953434 2.50004 -0.0081234 2.49598 0.000498772Z" fill="#F8F8F2"/>
<path d="M3.79549 3.17836C3.68904 3.57901 3.63338 3.69671 3.49568 3.81363C3.36189 3.92588 3.19295 3.98356 2.79353 4.05137C2.71639 4.06462 2.65193 4.07632 2.64998 4.07787C2.64803 4.07943 2.7076 4.08957 2.78084 4.10126C3.13924 4.15738 3.34725 4.22442 3.47908 4.32653C3.61385 4.43176 3.69197 4.5783 3.76619 4.86514C3.78475 4.93763 3.80135 4.99843 3.80232 4.99999C3.80428 5.00077 3.82185 4.93763 3.84236 4.85969C3.92439 4.544 4.02498 4.37719 4.19197 4.28288C4.32967 4.20493 4.49471 4.1566 4.78279 4.10905C4.88045 4.09268 4.95955 4.07865 4.95857 4.0771C4.95662 4.07632 4.88045 4.06306 4.78963 4.04825C4.43025 3.98901 4.24666 3.92666 4.11482 3.81909C3.98787 3.71464 3.90877 3.56108 3.83846 3.28203C3.80232 3.14173 3.80428 3.14484 3.79549 3.17836Z" fill="#F8F8F2"/>
</svg>
