<svg width="6" height="6" viewBox="0 0 6 6" fill="none" xmlns="http://www.w3.org/2000/svg">
<path d="M2.80166 0.0187528C2.75127 0.0539091 2.74189 0.101956 2.74189 0.308206V0.499222L2.6165 0.514456C1.50205 0.64219 0.641895 1.50235 0.51416 2.61563L0.498926 2.74219H0.30791C0.10166 2.74219 0.0536133 2.75157 0.018457 2.80196C-0.00615234 2.83711 -0.00615234 2.90508 0.018457 2.94024C0.0536133 2.99063 0.10166 3 0.306738 3H0.498926L0.518848 3.16055C0.564551 3.525 0.687598 3.86133 0.886816 4.16602C1.27822 4.7625 1.90049 5.14571 2.6165 5.22774L2.74189 5.24297V5.43399C2.74189 5.64024 2.75127 5.68828 2.80166 5.72344C2.83682 5.74805 2.90479 5.74805 2.93994 5.72344C2.99033 5.68828 2.99971 5.64024 2.99971 5.43399V5.24297L3.12627 5.22774C4.23721 5.10117 5.09971 4.23985 5.22744 3.12539L5.24268 3H5.43369C5.63994 3 5.68799 2.99063 5.72314 2.94024C5.74775 2.90508 5.74775 2.83711 5.72314 2.80196C5.68799 2.75157 5.63994 2.74219 5.43369 2.74219H5.24268L5.22744 2.61563C5.09854 1.5 4.24072 0.64219 3.12627 0.514456L2.99971 0.499222V0.308206C2.99971 0.101956 2.99033 0.0539091 2.93994 0.0187528C2.92471 0.00820595 2.89424 2.8236e-06 2.8708 2.8236e-06C2.84736 2.8236e-06 2.81689 0.00820595 2.80166 0.0187528ZM2.74189 1.06524V1.3793L2.67158 1.38633C2.51572 1.40274 2.29424 1.47657 2.13721 1.56446C1.87002 1.71446 1.62393 1.98516 1.50088 2.26524C1.44697 2.38946 1.39775 2.56289 1.38721 2.66836L1.379 2.74219H1.06494H0.749707L0.756738 2.68594C0.779004 2.48789 0.818848 2.30742 0.873926 2.15625C1.11416 1.48711 1.68369 0.975003 2.37275 0.809768C2.45713 0.788675 2.64814 0.758206 2.72783 0.751175C2.73838 0.750003 2.74189 0.820315 2.74189 1.06524ZM3.19307 0.774612C3.94893 0.884768 4.604 1.42617 4.86768 2.15625C4.92275 2.30742 4.9626 2.48789 4.98486 2.68594L4.99189 2.74219H4.67549H4.35908V2.70352C4.35908 2.63907 4.30518 2.42461 4.26182 2.3168C4.0626 1.82344 3.60791 1.4625 3.09697 1.39102L2.99971 1.37813V1.06407V0.750003L3.05596 0.757034C3.08643 0.76055 3.14854 0.768753 3.19307 0.774612ZM2.74189 1.75196C2.74189 1.93008 2.77588 1.99219 2.8708 1.99219C2.96689 1.99219 2.99971 1.93008 2.99971 1.75078V1.62657L3.05361 1.63477C3.22236 1.65938 3.42861 1.74141 3.57275 1.83985C3.67002 1.9043 3.79541 2.025 3.86807 2.11992C3.97939 2.26641 4.08018 2.50547 4.10713 2.68828L4.11533 2.74219H3.99111C3.81182 2.74219 3.74971 2.775 3.74971 2.8711C3.74971 2.96719 3.81182 3 3.99111 3H4.11533L4.10713 3.05391C4.08018 3.23672 3.97939 3.47578 3.86807 3.62227C3.79541 3.71719 3.67002 3.83789 3.57275 3.90235C3.42861 4.00078 3.22236 4.08282 3.05361 4.10742L2.99971 4.11563V3.99141C2.99971 3.81211 2.96689 3.75 2.8708 3.75C2.77588 3.75 2.74189 3.81211 2.74189 3.99024C2.74189 4.13086 2.75127 4.12266 2.62705 4.09571C2.37275 4.04297 2.14072 3.91289 1.96494 3.72774C1.7915 3.54258 1.6708 3.29766 1.63447 3.05391L1.62627 3H1.75049C1.92979 3 1.99189 2.96719 1.99189 2.8711C1.99189 2.775 1.92979 2.74219 1.75049 2.74219H1.62627L1.63447 2.68828C1.64971 2.58047 1.68955 2.45274 1.73994 2.34727C1.91104 1.98516 2.22744 1.73321 2.61885 1.64649C2.7501 1.61836 2.74189 1.61133 2.74189 1.75196ZM1.38252 3.03516C1.38252 3.1336 1.44697 3.3586 1.51846 3.51328C1.63682 3.77227 1.88291 4.03594 2.13721 4.17774C2.29541 4.26563 2.58486 4.35938 2.70439 4.35938H2.74189V4.67578V4.99219L2.69854 4.98633C2.67393 4.98282 2.61182 4.97461 2.56025 4.96758C1.80557 4.8668 1.13877 4.31953 0.873926 3.58594C0.818848 3.43477 0.779004 3.2543 0.756738 3.05508L0.749707 3H1.06611H1.38252V3.03516ZM4.98486 3.05508C4.92393 3.58711 4.73291 3.99961 4.379 4.35821C4.01807 4.72383 3.59736 4.92305 3.05596 4.98516L2.99971 4.99219V4.67578V4.35938H3.03486C3.08877 4.35938 3.28682 4.31367 3.38057 4.28086C3.77432 4.13907 4.10244 3.82149 4.26182 3.42539C4.30518 3.31758 4.35908 3.10313 4.35908 3.0375V3H4.67549H4.99189L4.98486 3.05508Z" fill="#F8F8F2"/>
</svg>
