<svg width="6" height="6" viewBox="0 0 6 6" fill="none" xmlns="http://www.w3.org/2000/svg">
<path d="M0.627425 0.0154638C0.495941 0.0471044 0.394105 0.126792 0.333519 0.245151L0.300003 0.309604V2.99906V5.68851L0.333519 5.75414C0.381214 5.84671 0.449534 5.91 0.548792 5.95453L0.635159 5.9932H2.76856H4.90196L4.98832 5.95453C5.08758 5.91 5.1559 5.84671 5.2036 5.75414L5.23711 5.68851L5.24098 3.76312C5.24356 1.87757 5.24356 1.83773 5.21906 1.79437C5.20489 1.76976 4.77692 1.3725 4.23551 0.882651C3.43629 0.157261 3.27 0.0119482 3.23391 0.00608878C3.21071 0.00257316 2.62676 -0.000942468 1.9384 0.000229407C0.989651 0.000229407 0.672542 0.00374503 0.627425 0.0154638ZM2.97739 1.06195L2.98125 1.75101L3.01735 1.8225C3.06117 1.90804 3.13594 1.97718 3.23262 2.02289L3.30352 2.0557L4.06793 2.05921L4.83106 2.06273L4.82848 3.84046L4.82461 5.6182H2.76856H0.712503L0.708636 3.01078C0.707347 1.5764 0.708636 0.396323 0.712503 0.38812C0.71637 0.377573 0.956136 0.374058 1.84559 0.374058H2.97352L2.97739 1.06195ZM3.9777 1.68421C3.6709 1.68539 3.4118 1.68421 3.40407 1.6807C3.39117 1.67718 3.38731 1.56117 3.38731 1.15687V0.637729L3.96094 1.15921L4.53457 1.6807L3.9777 1.68421Z" fill="#F8F8F2"/>
<path d="M2.68091 2.36156C2.65771 2.37328 2.6229 2.40023 2.60356 2.4225L2.56876 2.46351L2.56489 3.06703L2.56103 3.67054L2.40247 3.52875C2.2336 3.37757 2.20267 3.36234 2.10341 3.37875C2.04282 3.38929 1.96032 3.46429 1.94872 3.51937C1.9281 3.62132 1.93067 3.62484 2.31481 3.97406C2.6229 4.25414 2.67833 4.29984 2.71958 4.3057C2.8356 4.32562 2.83689 4.32445 3.22231 3.97406C3.60646 3.62484 3.60903 3.62132 3.58841 3.51937C3.57681 3.46429 3.49431 3.38929 3.43372 3.37875C3.33446 3.36234 3.30353 3.37757 3.13337 3.52875L2.97481 3.67054V3.08226C2.97481 2.42718 2.9761 2.44242 2.88845 2.38148C2.83302 2.34281 2.74149 2.33343 2.68091 2.36156Z" fill="#F8F8F2"/>
<path d="M1.65353 4.70296C1.56716 4.73695 1.51817 4.82718 1.53622 4.91507C1.54782 4.97015 1.61228 5.0346 1.67028 5.04984C1.70251 5.05921 2.06345 5.06156 2.79692 5.05921C3.86298 5.0557 3.87587 5.0557 3.91067 5.03109C3.97771 4.98539 3.99962 4.94789 3.99962 4.87523C3.99962 4.82015 3.99317 4.80023 3.96482 4.76624C3.89392 4.68187 3.96224 4.68656 2.76599 4.68656C1.90231 4.68773 1.68446 4.69007 1.65353 4.70296Z" fill="#F8F8F2"/>
</svg>
