<svg width="3" height="3" viewBox="0 0 3 3" fill="none" xmlns="http://www.w3.org/2000/svg">
<path d="M0.283578 0.0597656C0.283578 0.132422 0.290421 0.153516 0.327674 0.195117C0.394577 0.271289 0.523061 0.329883 0.724531 0.377344C0.795236 0.39375 0.811961 0.399609 0.811201 0.408398C0.811201 0.414258 0.770147 0.672656 0.71997 0.982617L0.629498 1.54688L0.568677 1.56562C0.275215 1.65527 0.0874303 1.77832 0.0250887 1.92188C0.0129245 1.95 0.00760264 1.97988 0.00456158 2.03437L0 2.10937H0.69336H1.38596V2.51777C1.38596 2.91387 1.38672 2.92676 1.40117 2.9502C1.41865 2.97832 1.46199 3 1.5 3C1.53801 3 1.58135 2.97832 1.59883 2.9502C1.61328 2.92676 1.61404 2.91387 1.61404 2.51777V2.10937H2.30664H3L2.99544 2.03437C2.9924 1.97988 2.98708 1.95 2.97491 1.92188C2.91257 1.77832 2.72478 1.65527 2.43132 1.56562L2.3705 1.54688L2.28003 0.984961C2.22985 0.675586 2.1888 0.417187 2.1888 0.410156C2.18804 0.399023 2.19868 0.394922 2.27547 0.377344C2.47694 0.329883 2.60542 0.271289 2.67233 0.195117C2.70958 0.153516 2.71642 0.132422 2.71642 0.0597656V0H1.5H0.283578V0.0597656Z" fill="white"/>
</svg>
