<svg width="4" height="4" viewBox="0 0 4 4" fill="none" xmlns="http://www.w3.org/2000/svg">
<path d="M2 0C1.73736 0 1.47728 0.0517315 1.23463 0.152241C0.991982 0.25275 0.771504 0.400069 0.585786 0.585786C0.210714 0.960859 0 1.46957 0 2C0 2.53043 0.210714 3.03914 0.585786 3.41421C0.771504 3.59993 0.991982 3.74725 1.23463 3.84776C1.47728 3.94827 1.73736 4 2 4C2.53043 4 3.03914 3.78929 3.41421 3.41421C3.78929 3.03914 4 2.53043 4 2C4 1.73736 3.94827 1.47728 3.84776 1.23463C3.74725 0.991982 3.59993 0.771504 3.41421 0.585786C3.2285 0.400069 3.00802 0.25275 2.76537 0.152241C2.52272 0.0517315 2.26264 0 2 0ZM2 3.6C1.118 3.6 0.4 2.882 0.4 2C0.4 1.118 1.118 0.4 2 0.4C2.882 0.4 3.6 1.118 3.6 2C3.6 2.882 2.882 3.6 2 3.6ZM2.6 2C2.6 2.15913 2.53679 2.31174 2.42426 2.42426C2.31174 2.53679 2.15913 2.6 2 2.6C1.84087 2.6 1.68826 2.53679 1.57574 2.42426C1.46321 2.31174 1.4 2.15913 1.4 2C1.4 1.84087 1.46321 1.68826 1.57574 1.57574C1.68826 1.46321 1.84087 1.4 2 1.4C2.15913 1.4 2.31174 1.46321 2.42426 1.57574C2.53679 1.68826 2.6 1.84087 2.6 2Z" fill="#F8F8F2"/>
</svg>
