<svg width="6" height="6" viewBox="0 0 6 6" fill="none" xmlns="http://www.w3.org/2000/svg">
<path fill="#1D1B20" d="M3.64583 3.20833H3.41542L3.33375 3.12958C3.61958 2.79708 3.79167 2.36542 3.79167 1.89583C3.79167 0.84875 2.94292 0 1.89583 0C0.84875 0 0 0.84875 0 1.89583C0 2.94292 0.84875 3.79167 1.89583 3.79167C2.36542 3.79167 2.79708 3.61958 3.12958 3.33375L3.20833 3.41542V3.64583L4.66667 5.10125L5.10125 4.66667L3.64583 3.20833ZM1.89583 3.20833C1.16958 3.20833 0.583333 2.62208 0.583333 1.89583C0.583333 1.16958 1.16958 0.583333 1.89583 0.583333C2.62208 0.583333 3.20833 1.16958 3.20833 1.89583C3.20833 2.62208 2.62208 3.20833 1.89583 3.20833Z"/>
</svg>
