<?xml version="1.0" encoding="UTF-8"?>
<svg id="Layer_1" data-name="Layer 1" xmlns="http://www.w3.org/2000/svg" version="1.1" viewBox="0 0 1920 1080">
  <defs>
    <style>
      .cls-1 {
        fill: #282a36;
      }

      .cls-1, .cls-2, .cls-3 {
        stroke-width: 0px;
      }

      .cls-2 {
        fill: #8c8cbf;
      }

      .cls-3 {
        fill: #f8f8f2;
      }
    </style>
  </defs>
  <rect class="cls-1" x="-18.56" y="-16.52" width="1973.52" height="1118.73"/>
  <g>
    <g>
      <g>
        <path class="cls-3" d="M885.19,660.53v-154.53h-59.35v-41.02h166.56v41.02h-59.35v154.53h-47.86Z"/>
        <path class="cls-3" d="M1003.61,660.53v-140.85h45.4v23.79l-.55,8.75h.55c3.1-9.85,8.79-18.14,17.09-24.89,8.29-6.74,17.55-10.12,27.76-10.12l5.47.55v46.49c-2.55-.55-5.74-.82-9.57-.82-18.97,0-31.09,8.2-36.38,24.61-1.64,5.29-2.46,11.67-2.46,19.15v53.33h-47.32Z"/>
        <path class="cls-3" d="M1121.22,660.53v-140.85h47.32v140.85h-47.32ZM1121.76,501.9v-36.92h46.22v36.92h-46.22Z"/>
      </g>
      <path class="cls-2" d="M1209.01,660.53v-195.55h69.47c30.99,0,55.56,8.62,73.71,25.85,18.14,17.23,27.21,41.07,27.21,71.52s-9.07,54.66-27.21,72.07c-18.15,17.41-42.71,26.12-73.71,26.12h-69.47ZM1256.87,619.5h19.69c16.77,0,29.85-4.92,39.25-14.77,9.39-9.85,14.09-23.97,14.09-42.39s-4.74-32.18-14.22-41.84c-9.48-9.66-22.52-14.5-39.11-14.5h-19.69v113.5Z"/>
    </g>
    <g>
      <path class="cls-2" d="M741.43,570.29c-11.02,0-21.53,3.99-29.77,11.28l-16.07-13.69-.79-.67-.03-.03-6.61-5.63c2.55-4.63,3.89-9.83,3.89-15.13,0-4.84-1.14-9.65-3.29-13.98l7.07-5.55.07-.06s.1-.06.15-.1l25.07-19.68c5.68,4.81,12.83,7.44,20.31,7.44,17.4,0,31.57-14.16,31.57-31.57s-14.17-31.57-31.57-31.57-31.58,14.16-31.58,31.57c0,4.84,1.14,9.65,3.29,13.99l-24.38,19.15s-.03.01-.04.02c-.09.06-.17.12-.26.19l-7.68,6.03c-5.67-4.81-12.83-7.45-20.3-7.45-5.68,0-11.21,1.53-16.07,4.43l-.54-.59-6.03-6.6-17.27-18.91c6.63-8.06,10.27-18.15,10.27-28.59,0-24.88-20.24-45.12-45.12-45.12s-45.12,20.24-45.12,45.12,20.24,45.12,45.12,45.12c8.96,0,17.9-2.77,25.33-7.82l17.26,18.89,6.06,6.62.53.59c-3.87,5.36-5.99,11.85-5.99,18.43,0,5.26,1.32,10.44,3.83,15.04l-7.44,6.31c-.19.16-.34.3-.5.48l-.02.02-19.66,16.59c-5.52-4.32-12.36-6.68-19.4-6.68-17.41,0-31.57,14.16-31.57,31.57s14.16,31.57,31.57,31.57,31.57-14.16,31.57-31.57c0-5.26-1.32-10.43-3.84-15.04l25.19-21.27c.2-.17.39-.35.56-.54h.01s1.86-1.59,1.86-1.59c5.53,4.32,12.37,6.68,19.41,6.68s13.81-2.34,19.32-6.63l6.59,5.62.04.03.02.02.76.65,16.08,13.71c-4.57,7.21-6.98,15.48-6.98,24.02,0,24.88,20.24,45.12,45.12,45.12s45.11-20.24,45.11-45.12-20.24-45.12-45.11-45.12ZM741.43,464.25c10.29,0,18.67,8.37,18.67,18.67s-8.38,18.67-18.67,18.67-18.68-8.38-18.68-18.67,8.38-18.67,18.68-18.67ZM585.72,496.81c-17.77,0-32.22-14.45-32.22-32.22s14.45-32.22,32.22-32.22,32.22,14.45,32.22,32.22-14.46,32.22-32.22,32.22ZM585.72,628.42c-10.3,0-18.67-8.38-18.67-18.67s8.37-18.67,18.67-18.67,18.67,8.37,18.67,18.67-8.38,18.67-18.67,18.67ZM660.48,565.1c-10.3,0-18.67-8.38-18.67-18.68s8.37-18.67,18.67-18.67,18.67,8.38,18.67,18.67-8.38,18.68-18.67,18.68ZM741.43,647.63c-17.77,0-32.22-14.45-32.22-32.22s14.45-32.22,32.22-32.22,32.21,14.45,32.21,32.22-14.45,32.22-32.21,32.22Z"/>
      <path class="cls-2" d="M672.79,546.42c0,6.79-5.53,12.31-12.31,12.31s-12.31-5.52-12.31-12.31,5.52-12.3,12.31-12.3,12.31,5.52,12.31,12.3Z"/>
    </g>
  </g>
</svg>